<?xml version="1.0" standalone="no"?>
<!DOCTYPE svg PUBLIC "-//W3C//DTD SVG 20010904//EN"
 "http://www.w3.org/TR/2001/REC-SVG-20010904/DTD/svg10.dtd">
<svg version="1.0" xmlns="http://www.w3.org/2000/svg"
 width="512.000000pt" height="512.000000pt" viewBox="0 0 512.000000 512.000000"
 preserveAspectRatio="xMidYMid meet">
<metadata>
Created by potrace 1.11, written by Peter Selinger 2001-2013
</metadata>
<g transform="translate(0.000000,512.000000) scale(0.100000,-0.100000)"
fill="#000000" stroke="none">
<path d="M1821 5109 c-13 -5 -119 -105 -236 -223 -231 -231 -238 -241 -216
-322 18 -66 66 -104 136 -108 45 -3 83 19 158 92 52 51 67 62 67 47 1 -11 1
-196 1 -410 0 -384 1 -391 22 -429 55 -97 191 -101 249 -7 l23 36 0 617 c0
607 0 617 -21 644 -45 61 -121 87 -183 63z"/>
<path d="M2785 5113 c-61 -13 -163 -60 -213 -98 -95 -72 -153 -162 -187 -290
-19 -73 -22 -552 -4 -637 27 -128 119 -264 224 -330 96 -60 254 -93 329 -68
55 18 91 72 91 136 0 88 -52 137 -159 149 -70 8 -101 22 -144 67 -52 52 -57
89 -57 370 1 239 3 255 23 295 25 48 79 96 125 110 83 25 186 -9 236 -78 29
-40 35 -56 46 -133 15 -103 108 -161 202 -125 60 23 94 88 88 169 -17 203
-160 384 -352 446 -46 15 -207 26 -248 17z"/>
<path d="M4123 5106 c-147 -37 -272 -136 -335 -266 -52 -109 -53 -115 -53
-440 0 -272 2 -311 19 -360 107 -316 447 -451 741 -293 53 28 137 109 174 169
17 26 41 77 53 113 22 63 23 79 23 371 0 272 -2 311 -19 360 -73 215 -257 353
-476 357 -41 1 -98 -4 -127 -11z m216 -306 c51 -26 88 -71 104 -128 14 -51 17
-462 3 -539 -9 -49 -65 -120 -113 -139 -115 -49 -231 -6 -289 106 -16 31 -18
64 -18 290 0 180 4 266 13 293 41 121 184 177 300 117z"/>
<path d="M834 3235 c-43 -18 -432 -409 -450 -451 -19 -45 -18 -70 6 -119 33
-68 115 -99 185 -69 16 7 59 42 95 78 35 36 67 66 70 66 3 0 5 -183 4 -407 -1
-374 1 -411 17 -444 53 -106 210 -105 258 2 17 37 18 83 17 647 -1 576 -2 609
-20 638 -36 60 -119 87 -182 59z"/>
<path d="M1830 3247 c-3 -3 -21 -7 -40 -10 -19 -3 -44 -8 -55 -12 -178 -68
-289 -187 -335 -360 -27 -99 -27 -575 -1 -675 59 -223 251 -374 481 -379 243
-5 442 149 503 389 21 80 21 580 1 659 -44 170 -169 306 -332 362 -54 19 -211
37 -222 26z m165 -319 c41 -22 71 -56 91 -103 14 -34 17 -78 19 -275 0 -129
-2 -254 -7 -277 -35 -198 -307 -234 -396 -54 l-26 55 0 256 c0 251 0 256 24
305 53 107 188 149 295 93z"/>
<path d="M3173 3235 c-43 -18 -431 -408 -449 -450 -19 -46 -18 -71 6 -120 23
-48 79 -83 125 -80 17 1 38 3 48 4 9 0 53 35 97 77 44 42 80 70 81 63 0 -8 1
-194 2 -414 2 -434 2 -436 59 -478 42 -31 119 -34 163 -7 74 46 72 21 71 707
-1 601 -1 612 -22 639 -48 64 -116 86 -181 59z"/>
<path d="M4120 3233 c-115 -29 -215 -95 -283 -185 -93 -124 -107 -196 -106
-533 1 -287 9 -341 65 -445 60 -112 189 -212 319 -246 75 -20 192 -17 268 6
162 50 273 155 335 316 26 68 27 71 29 364 2 318 -2 352 -53 457 -42 88 -126
173 -220 225 -90 50 -248 69 -354 41z m214 -300 c45 -22 75 -53 99 -98 19 -38
21 -56 20 -305 0 -289 -3 -307 -60 -364 -58 -58 -133 -76 -216 -52 -58 17
-115 69 -137 125 -16 40 -21 461 -7 549 20 127 182 205 301 145z"/>
<path d="M1049 1415 c-164 -53 -285 -180 -335 -350 -14 -50 -17 -104 -18 -317
-1 -161 3 -284 11 -329 16 -99 64 -191 138 -264 99 -100 198 -145 335 -151
148 -6 277 43 378 144 78 78 121 157 149 276 6 28 6 553 -1 591 -55 305 -367
496 -657 400z m267 -300 c27 -16 54 -43 71 -73 l28 -47 2 -265 c2 -239 1 -269
-16 -305 -62 -136 -239 -173 -343 -73 -63 61 -63 60 -66 343 -4 277 1 315 44
371 13 18 46 43 73 57 66 32 143 29 207 -8z"/>
<path d="M2520 1419 c-58 -36 -418 -403 -436 -444 -39 -94 34 -198 138 -197
48 1 87 25 158 96 30 31 57 56 60 56 3 0 5 -102 5 -227 0 -203 2 -232 19 -266
46 -94 186 -101 249 -13 22 31 22 34 24 463 2 426 2 432 -20 474 -38 75 -126
101 -197 58z"/>
</g>
</svg>
